<?xml version="1.0" encoding="UTF-8" standalone="no"?>
<svg
   height="16"
   width="16"
   id="svg2"
   version="1.1"
   sodipodi:docname="audio-volume-low.svg"
   inkscape:version="1.2.2 (b0a8486541, 2022-12-01)"
   xmlns:inkscape="http://www.inkscape.org/namespaces/inkscape"
   xmlns:sodipodi="http://sodipodi.sourceforge.net/DTD/sodipodi-0.dtd"
   xmlns="http://www.w3.org/2000/svg"
   xmlns:svg="http://www.w3.org/2000/svg"
   xmlns:rdf="http://www.w3.org/1999/02/22-rdf-syntax-ns#"
   xmlns:cc="http://creativecommons.org/ns#"
   xmlns:dc="http://purl.org/dc/elements/1.1/">
  <sodipodi:namedview
     id="namedview614"
     pagecolor="#ffffff"
     bordercolor="#666666"
     borderopacity="1.0"
     inkscape:showpageshadow="2"
     inkscape:pageopacity="0.0"
     inkscape:pagecheckerboard="0"
     inkscape:deskcolor="#d1d1d1"
     showgrid="false"
     inkscape:zoom="45.652582"
     inkscape:cx="8.5427808"
     inkscape:cy="8.0280235"
     inkscape:current-layer="svg2" />
  <metadata
     id="metadata16">
    <rdf:RDF>
      <cc:Work
         rdf:about="">
        <dc:format>image/svg+xml</dc:format>
        <dc:type
           rdf:resource="http://purl.org/dc/dcmitype/StillImage" />
      </cc:Work>
    </rdf:RDF>
  </metadata>
  <defs
     id="defs14" />
  <path
     d="M 15,8 C 15,4.775 13.796,2.018 12.054,0.75 l -1.155,1.04 c 1.5,1.062 2.542,3.453 2.542,6.21 0,2.757 -1.042,5.148 -2.542,6.21 l 1.155,1.04 C 13.796,13.982 15,11.225 15,8 Z"
     fill="#666666"
     opacity="0.35"
     overflow="visible"
     style="color:#bebebe;marker:none"
     id="path6" />
  <path
     d="m 11.939,8 c 0,-2.18 -0.829,-4.085 -2.08,-5.285 L 8.791,3.668 C 9.756,4.694 10.379,6.25 10.379,8 c 0,1.75 -0.623,3.306 -1.588,4.332 l 1.068,0.953 c 1.251,-1.2 2.08,-3.104 2.08,-5.285 z"
     fill="#666666"
     opacity="0.35"
     overflow="visible"
     style="color:#bebebe;marker:none"
     id="path8" />
  <path
     style="color:#bebebe;marker:none"
     d="m 0,6 v 4 H 1.652 L 5,13.37 V 2.63 L 1.652,6 Z"
     id="path738" />
  <path
     style="color:#bebebe;marker:none;fill:#808080;fill-opacity:1"
     d="M 8.993,8 C 8.993,6.674 8.553,5.458 7.838,4.505 L 6.74,5.487 a 4.9,4.9 0 0 1 0,5.026 l 1.098,0.982 A 5.813,5.813 0 0 0 8.993,8 Z"
     id="path10" />
</svg>
