<?xml version="1.0" encoding="UTF-8" standalone="no"?>
<svg
   xmlns:dc="http://purl.org/dc/elements/1.1/"
   xmlns:cc="http://creativecommons.org/ns#"
   xmlns:rdf="http://www.w3.org/1999/02/22-rdf-syntax-ns#"
   xmlns:svg="http://www.w3.org/2000/svg"
   xmlns="http://www.w3.org/2000/svg"
   xmlns:sodipodi="http://sodipodi.sourceforge.net/DTD/sodipodi-0.dtd"
   xmlns:inkscape="http://www.inkscape.org/namespaces/inkscape"
   id="svg1094"
   sodipodi:docname="icon.svg"
   viewBox="0 0 212.68 187.09"
   sodipodi:version="0.32"
   version="1.0"
   inkscape:output_extension="org.inkscape.output.svg.inkscape"
   inkscape:version="1.0.2 (e86c870879, 2021-01-15)">
  <defs
     id="defs3">
    <linearGradient
       id="linearGradient2002"
       y2="53.323"
       gradientUnits="userSpaceOnUse"
       y1="278.48"
       gradientTransform="matrix(1.1223,0,0,0.78898,-223.2465,53.01)"
       x2="118.78"
       x1="120.91"
       inkscape:collect="always">
      <stop
         id="stop1836"
         style="stop-color:#64c4de"
         offset="0" />
      <stop
         id="stop1837"
         style="stop-color:#64c4de;stop-opacity:0"
         offset="1" />
    </linearGradient>
  </defs>
  <sodipodi:namedview
     id="base"
     bordercolor="#ffffff"
     inkscape:pageshadow="0"
     inkscape:window-width="640"
     pagecolor="#ffffff"
     inkscape:zoom="2.4559706"
     inkscape:window-x="329"
     borderopacity="0.0"
     inkscape:current-layer="layer1"
     inkscape:cx="160.02785"
     inkscape:cy="157.26003"
     inkscape:window-y="67"
     inkscape:window-height="541"
     inkscape:pageopacity="0.0"
     inkscape:document-rotation="0"
     showgrid="false" />
  <g
     id="layer1"
     inkscape:label="Layer 1"
     inkscape:groupmode="layer"
     transform="translate(224.38 -112.35)">
    <path
       id="path1998"
       style="fill:#ffffff;fill-rule:evenodd;stroke:#bfbcbc;stroke-width:2.1612;stroke-linecap:round"
       d="m -208.687,123.52 c -8.0937,0 -14.621,6.77 -14.621,15.2 l -3.2e-4,17.67 v 75.11 35.991 c 0,8.436 6.5276,15.208 14.621,15.208 h 181.25 c 8.09,0 14.62,-6.772 14.62,-15.208 v -111.1 c 0,-8.43 -6.53,-15.2 -14.62,-15.2 h -117.3 l 0.003,-2.47 c 0,-8.43 -6.527,-15.2 -14.621,-15.2 h -49.335 z" />
    <path
       id="path1999"
       style="fill:url(#linearGradient2002);fill-rule:evenodd;stroke:#bfbcbc;stroke-width:2.082;stroke-linecap:round"
       d="m -208.625,135 c -8.0939,0 -14.622,6.29 -14.622,14.12 l 5e-4,16.39 v 69.71 33.399 c 0,7.829 6.5276,14.114 14.622,14.114 h 181.25 c 8.1,0 14.62,-6.285 14.62,-14.114 v -103.11 c 0,-7.82 -6.52,-14.11 -14.62,-14.11 h -117.3 l 0.005,-2.28 c 0,-7.83 -6.528,-14.12 -14.621,-14.12 h -49.335 z" />
    <path
       id="path2000"
       style="fill:#0000ff;fill-rule:evenodd"
       d="m -136.78,147.15 -14.04,106.53 c -3.08,-8.22 -9.5,-13.75 -17.64,-13.9 -12.82,-0.24 -24.99,12.94 -27.16,29.41 -2.17,16.46 6.48,30.01 19.3,30.25 11.18,0.21 21.86,-9.79 25.85,-23.26 h 0.43 l 0.69,-5.28 c 0.05,-0.29 0.14,-0.56 0.18,-0.86 0.04,-0.29 0.02,-0.56 0.05,-0.85 l 15.51,-117.73 c 6.37,12.33 43.27,53.71 45.47,15.98 0.56,-39.09 -0.28,-2.58 -17.98,-2.91 -14.43,-0.26 -23.68,-14.24 -27.05,-16.42 l 0.12,-0.89 z" />
    <path
       id="path2001"
       style="fill:#0000ff;fill-rule:evenodd"
       d="m -65.6,112.35 -21.7,105.24 c -2.48,-8.42 -8.48,-14.4 -16.59,-15.13 -12.77,-1.17 -25.87,11.1 -29.22,27.37 -3.35,16.26 4.3,30.4 17.07,31.56 11.14,1.02 22.51,-8.18 27.46,-21.33 l 0.43,0.04 1.07,-5.23 c 0.07,-0.28 0.18,-0.54 0.24,-0.83 0.06,-0.29 0.06,-0.56 0.11,-0.85 l 23.98,-116.3 c 5.46,12.75 39.28,56.69 44.19,19.22 3.39,-38.95 -0.09,-2.6 -17.72,-4.2 -14.37,-1.31 -22.58,-15.92 -25.79,-18.33 l 0.18,-0.89 z" />
  </g>
  <metadata
     id="metadata13">
    <rdf:RDF>
      <cc:Work>
        <dc:format>image/svg+xml</dc:format>
        <dc:type
           rdf:resource="http://purl.org/dc/dcmitype/StillImage" />
        <cc:license
           rdf:resource="http://creativecommons.org/publicdomain/zero/1.0/" />
        <dc:publisher>
          <cc:Agent
             rdf:about="http://openclipart.org/">
            <dc:title>Openclipart</dc:title>
          </cc:Agent>
        </dc:publisher>
        <dc:title>Music Folder Icon</dc:title>
        <dc:date>2009-04-02T00:37:07</dc:date>
        <dc:description>A Music Folder icon by Al Arthur</dc:description>
        <dc:source>https://openclipart.org/detail/23730/music-folder-icon-by-anonymous-23730</dc:source>
        <dc:creator>
          <cc:Agent>
            <dc:title>Anonymous</dc:title>
          </cc:Agent>
        </dc:creator>
        <dc:subject>
          <rdf:Bag>
            <rdf:li>computer</rdf:li>
            <rdf:li>folder</rdf:li>
            <rdf:li>icon</rdf:li>
            <rdf:li>music</rdf:li>
          </rdf:Bag>
        </dc:subject>
      </cc:Work>
      <cc:License
         rdf:about="http://creativecommons.org/publicdomain/zero/1.0/">
        <cc:permits
           rdf:resource="http://creativecommons.org/ns#Reproduction" />
        <cc:permits
           rdf:resource="http://creativecommons.org/ns#Distribution" />
        <cc:permits
           rdf:resource="http://creativecommons.org/ns#DerivativeWorks" />
      </cc:License>
    </rdf:RDF>
  </metadata>
</svg>
