<?xml version="1.0" encoding="UTF-8" standalone="no"?>
<svg
   xmlns:dc="http://purl.org/dc/elements/1.1/"
   xmlns:cc="http://creativecommons.org/ns#"
   xmlns:rdf="http://www.w3.org/1999/02/22-rdf-syntax-ns#"
   xmlns:svg="http://www.w3.org/2000/svg"
   xmlns="http://www.w3.org/2000/svg"
   xmlns:xlink="http://www.w3.org/1999/xlink"
   version="1.0"
   id="svg2"
   height="47.000061"
   width="48">
  <defs
     id="defs4">
    <linearGradient
       id="linearGradient5974">
      <stop
         style="stop-color:#7f7f7f;stop-opacity:0.627451"
         offset="0"
         id="stop5976" />
      <stop
         style="stop-color:#7f7f7f;stop-opacity:0"
         offset="1"
         id="stop5978" />
    </linearGradient>
    <linearGradient
       id="linearGradient5968">
      <stop
         style="stop-color:#8e8e8e;stop-opacity:1"
         offset="0"
         id="stop5970" />
      <stop
         style="stop-color:#a0a0a0;stop-opacity:1"
         offset="1"
         id="stop5972" />
    </linearGradient>
    <linearGradient
       id="linearGradient4836">
      <stop
         id="stop4838"
         offset="0"
         style="stop-color:white;stop-opacity:1;" />
      <stop
         id="stop4840"
         offset="1"
         style="stop-color:white;stop-opacity:0.58823532" />
    </linearGradient>
    <linearGradient
       id="linearGradient8655">
      <stop
         id="stop8657"
         offset="0.0000000"
         style="stop-color:#000000;stop-opacity:0.30208334;" />
      <stop
         id="stop8659"
         offset="1"
         style="stop-color:#000000;stop-opacity:0;" />
    </linearGradient>
    <linearGradient
       id="linearGradient7917">
      <stop
         id="stop7919"
         offset="0.0000000"
         style="stop-color:#000000;stop-opacity:0.16666669;" />
      <stop
         id="stop7921"
         offset="1"
         style="stop-color:#000000;stop-opacity:0;" />
    </linearGradient>
    <linearGradient
       id="linearGradient6455">
      <stop
         id="stop6457"
         offset="0"
         style="stop-color:#f1f1f1;stop-opacity:1;" />
      <stop
         id="stop6459"
         offset="1"
         style="stop-color:#cecece;stop-opacity:1;" />
    </linearGradient>
    <linearGradient
       id="linearGradient5703">
      <stop
         style="stop-color:#ffffff;stop-opacity:0.83333325;"
         offset="0.0000000"
         id="stop5705" />
      <stop
         style="stop-color:#ffffff;stop-opacity:0.0000000"
         offset="1"
         id="stop5707" />
    </linearGradient>
    <linearGradient
       id="linearGradient5691">
      <stop
         id="stop5693"
         offset="0.0000000"
         style="stop-color:#ffffff;stop-opacity:0.83333325;" />
      <stop
         id="stop5695"
         offset="1"
         style="stop-color:#ffffff;stop-opacity:0.0000000" />
    </linearGradient>
    <linearGradient
       gradientTransform="matrix(0.421923,0,0,0.437354,-1.2660443,-3.2705512)"
       gradientUnits="userSpaceOnUse"
       y2="61.223637"
       x2="48.388142"
       y1="33.89996"
       x1="31.114616"
       id="linearGradient5697"
       xlink:href="#linearGradient5691" />
    <linearGradient
       gradientTransform="matrix(0.42539,0,0,0.416527,-0.53940025,-1.9243392)"
       y2="78.300934"
       x2="33.750458"
       y1="95.622185"
       x1="59.902058"
       gradientUnits="userSpaceOnUse"
       id="linearGradient5723"
       xlink:href="#linearGradient5703" />
    <linearGradient
       gradientTransform="matrix(0.4487,0,0,0.446559,-1.8276323,-4.3937462)"
       gradientUnits="userSpaceOnUse"
       y2="75.682442"
       x2="54.294334"
       y1="33.477123"
       x1="21.100939"
       id="linearGradient6461"
       xlink:href="#linearGradient6455" />
    <radialGradient
       gradientUnits="userSpaceOnUse"
       gradientTransform="matrix(1,0,0,0.228426,-6.0455521e-7,87.21598)"
       r="48.06039"
       fy="110.19082"
       fx="51.231888"
       cy="110.19082"
       cx="51.231888"
       id="radialGradient7923"
       xlink:href="#linearGradient7917" />
    <linearGradient
       gradientTransform="matrix(0.383382,0,0,0.470667,2.0127787,-6.9888722)"
       gradientUnits="userSpaceOnUse"
       y2="84.96209"
       x2="86.77282"
       y1="177.41431"
       x1="59.867424"
       id="linearGradient8661"
       xlink:href="#linearGradient8655" />
    <linearGradient
       gradientTransform="matrix(0.446388,0,0,0.441471,-2.3795233,-4.0645042)"
       gradientUnits="userSpaceOnUse"
       y2="65.067497"
       x2="24.326601"
       y1="65.067497"
       x1="100.05664"
       id="linearGradient4834"
       xlink:href="#linearGradient5974" />
    <linearGradient
       gradientTransform="matrix(0.452495,0,0,0.445896,-2.9217003,-4.0737362)"
       gradientUnits="userSpaceOnUse"
       y2="101.36707"
       x2="59.657269"
       y1="21.226875"
       x1="38.183765"
       id="linearGradient4842"
       xlink:href="#linearGradient4836" />
    <linearGradient
       gradientTransform="matrix(0.4487,0,0,0.446559,-2.7250323,-4.3937462)"
       gradientUnits="userSpaceOnUse"
       y2="65.5"
       x2="43.49057"
       y1="65.5"
       x1="99.25"
       id="linearGradient5724"
       xlink:href="#linearGradient5968" />
    <linearGradient
       id="linearGradient2447">
      <stop
         id="stop2449"
         offset="0.0000000"
         style="stop-color:#ffffff;stop-opacity:1.0000000;" />
      <stop
         id="stop2451"
         offset="1.0000000"
         style="stop-color:#ffffff;stop-opacity:0.0000000;" />
    </linearGradient>
    <linearGradient
       id="linearGradient2423">
      <stop
         style="stop-color:#ffffff;stop-opacity:1.0000000;"
         offset="0.0000000"
         id="stop2425" />
      <stop
         style="stop-color:#ffffff;stop-opacity:0.0000000;"
         offset="1.0000000"
         id="stop2427" />
    </linearGradient>
    <linearGradient
       id="linearGradient2403">
      <stop
         style="stop-color:#aadf00;stop-opacity:1.0000000;"
         offset="0.0000000"
         id="stop2405" />
      <stop
         style="stop-color:#4dc721;stop-opacity:1.0000000;"
         offset="1.0000000"
         id="stop2409" />
    </linearGradient>
    <linearGradient
       id="linearGradient2383">
      <stop
         id="stop2385"
         offset="0.0000000"
         style="stop-color:#ffffff;stop-opacity:1.0000000;" />
      <stop
         id="stop2389"
         offset="1.0000000"
         style="stop-color:#ffffff;stop-opacity:0.0000000;" />
    </linearGradient>
    <linearGradient
       y2="84.142044"
       x2="161.74821"
       y1="108.61332"
       x1="147.57317"
       gradientTransform="matrix(0.242052,0,0,0.251733,-1.0181953,1.1675278)"
       gradientUnits="userSpaceOnUse"
       id="linearGradient5084"
       xlink:href="#linearGradient2423" />
    <linearGradient
       y2="84.142044"
       x2="161.74821"
       y1="108.61332"
       x1="147.57317"
       gradientTransform="matrix(0.242052,0,0,0.273368,-13.01817,1.0333706)"
       gradientUnits="userSpaceOnUse"
       id="linearGradient5087"
       xlink:href="#linearGradient2447" />
    <linearGradient
       y2="46.60899"
       x2="132.50201"
       y1="21.914911"
       x1="130.02267"
       gradientTransform="matrix(0.330411,0,0,0.16975,-9.8999783,2.8636238)"
       gradientUnits="userSpaceOnUse"
       id="linearGradient5090"
       xlink:href="#linearGradient2383" />
    <linearGradient
       y2="81.863159"
       x2="177.10718"
       y1="15.598222"
       x1="206.98412"
       gradientTransform="matrix(0.217381,0,0,0.261948,-10.57598,3.0218858)"
       gradientUnits="userSpaceOnUse"
       id="linearGradient5093"
       xlink:href="#linearGradient2403" />
  </defs>
  <metadata
     id="metadata7">
    <rdf:RDF>
      <cc:Work
         rdf:about="">
        <dc:format>image/svg+xml</dc:format>
        <dc:type
           rdf:resource="http://purl.org/dc/dcmitype/StillImage" />
        <dc:title></dc:title>
      </cc:Work>
    </rdf:RDF>
  </metadata>
  <g
     transform="translate(2.5158142e-7,-0.99999984)"
     id="layer1">
    <path
       id="path7925"
       d="m 36.350491,32.005854 c -9.670019,-0.156619 -20.808881,2.848497 -24.8666,6.708676 -4.0577194,3.860179 0.492431,7.123016 10.162451,7.279622 9.670018,0.156619 20.812625,-2.852053 24.870343,-6.712232 4.057719,-3.860178 -0.496172,-7.119448 -10.166194,-7.276066 z m -7.937368,6.067249 c 1.249491,0.02023 1.842153,0.438172 1.317843,0.936952 -0.524309,0.498791 -1.964817,0.887417 -3.214308,0.867187 -1.249494,-0.02024 -1.838413,-0.44174 -1.314103,-0.94052 0.524309,-0.498791 1.961076,-0.88386 3.210568,-0.863619 z"
       style="color:#000000;display:inline;overflow:visible;visibility:visible;opacity:1;fill:url(#linearGradient8661);fill-opacity:1;fill-rule:evenodd;stroke:none;stroke-width:1.66170299;stroke-linecap:round;stroke-linejoin:round;stroke-miterlimit:4;stroke-dasharray:none;stroke-dashoffset:0;stroke-opacity:1;marker:none;marker-start:none;marker-mid:none;marker-end:none" />
    <ellipse
       ry="10.978262"
       rx="48.06039"
       cy="110.19082"
       cx="51.231888"
       transform="matrix(0.416143,0,0,0.455446,-1.319796,-7.185913)"
       id="path7189"
       style="color:#000000;display:inline;overflow:visible;visibility:visible;opacity:1;fill:url(#radialGradient7923);fill-opacity:1;fill-rule:evenodd;stroke:none;stroke-width:3;stroke-linecap:round;stroke-linejoin:round;stroke-miterlimit:4;stroke-dasharray:none;stroke-dashoffset:0;stroke-opacity:0.78400005;marker:none;marker-start:none;marker-mid:none;marker-end:none" />
    <path
       id="path1308"
       d="m 20.999989,1.4999996 c -11.31755,0 -20.49998949,9.8524514 -20.49998949,21.9930134 0,12.140558 9.18244059,22.006969 20.49998949,22.006969 11.317546,0 20.499986,-9.8664 20.499986,-22.006969 10e-7,-12.140563 -9.18244,-21.9930134 -20.499986,-21.9930134 z m -1.78078,14.3177874 c 3.957837,0 7.179203,3.461352 7.179203,7.731046 1e-6,4.269698 -3.221366,7.731045 -7.179203,7.731045 -3.957836,0 -7.16518,-3.461347 -7.16518,-7.731045 -10e-7,-4.269693 3.207345,-7.731046 7.16518,-7.731046 z"
       style="color:#000000;display:inline;overflow:visible;visibility:visible;opacity:1;fill:url(#linearGradient6461);fill-opacity:1;fill-rule:evenodd;stroke:url(#linearGradient5724);stroke-width:0.99999952;stroke-linecap:round;stroke-linejoin:round;stroke-miterlimit:4;stroke-dasharray:none;stroke-dashoffset:0;stroke-opacity:1;marker:none;marker-start:none;marker-mid:none;marker-end:none" />
    <path
       id="path4955"
       d="m 20.331174,3.0004399 c -0.820161,-0.00671 -1.669967,0.06334 -2.531543,0.205009 0.245798,6.1370209 0.492569,12.2728081 0.738367,18.4098281 0.493842,0.01078 0.932569,0.223873 1.292141,0.54669 C 23.886295,17.373858 27.943846,12.585766 32,7.797656 30.65243,6.3619791 26.072296,3.0473853 20.331174,3.0004399 Z M 16.903043,25.619791 C 13.370921,29.789304 9.8343331,33.955836 6.3022107,38.125348 10.487688,42.761235 14.671067,44.845401 19.474141,45 19.225603,38.79456 18.971127,32.590588 18.722589,26.38516 c -0.0775,0.0094 -0.144413,0.05466 -0.224146,0.05466 -0.642472,0 -1.19936,-0.320613 -1.5954,-0.820033 z"
       style="fill:url(#linearGradient5697);fill-opacity:1;fill-rule:evenodd;stroke:none;stroke-width:0.25000001pt;stroke-linecap:butt;stroke-linejoin:miter;stroke-opacity:1" />
    <path
       id="path5701"
       d="m 21.235288,4.0004189 c -0.8269,-0.00639 -1.683689,0.060323 -2.552344,0.1952473 0.247818,5.8447818 0.496617,11.6883888 0.744434,17.5331698 0.4979,0.01027 0.940233,0.213213 1.30276,0.520658 C 24.819623,17.689388 28.910517,13.129302 33,8.5691957 31.641358,7.2018855 27.023588,4.0451286 21.235288,4.0004189 Z m -3.4563,21.5422341 C 14.217842,29.513621 10.652194,33.481757 7.091046,37.452714 11.310916,41.867847 15.52867,43.852757 20.371213,44 20.120633,38.090065 19.864066,32.18152 19.613486,26.271585 c -0.07814,0.009 -0.1456,0.05206 -0.225988,0.05206 -0.647752,0 -1.209215,-0.305343 -1.60851,-0.780992 z"
       style="fill:url(#linearGradient5723);fill-opacity:1;fill-rule:evenodd;stroke:none;stroke-width:0.25000001pt;stroke-linecap:butt;stroke-linejoin:miter;stroke-opacity:1" />
    <path
       id="path2055"
       d="m 19.213352,16.123049 c -3.793898,0 -6.869293,3.300306 -6.869293,7.371659 0,4.071357 3.075395,7.383178 6.869293,7.383178 3.793897,0 6.880024,-3.311821 6.880026,-7.383178 0,-4.071353 -3.086129,-7.371659 -6.880026,-7.371659 z m 0,4.192631 c 1.635294,0 2.962383,1.424142 2.962383,3.179028 0,1.754888 -1.327089,3.179034 -2.962383,3.179034 -1.635294,0 -2.962383,-1.424146 -2.962383,-3.179034 -1e-6,-1.754885 1.32709,-3.179028 2.962383,-3.179028 z"
       style="color:#000000;display:inline;overflow:visible;visibility:visible;opacity:1;fill:#f2f2f2;fill-opacity:0.41199999;fill-rule:evenodd;stroke:#e3e3e3;stroke-width:0.53548694;stroke-linecap:round;stroke-linejoin:round;stroke-miterlimit:4;stroke-dasharray:none;stroke-dashoffset:0;stroke-opacity:0.64800002;marker:none;marker-start:none;marker-mid:none;marker-end:none" />
    <path
       id="path4818"
       d="m 20.999996,3.0000007 c -10.489439,0 -18.9999963,9.1806983 -18.9999963,20.4935033 0,11.3128 8.5105583,20.506507 18.9999963,20.506507 10.489438,0 18.999998,-9.193707 18.999998,-20.506507 10e-7,-11.312805 -8.510558,-20.4935033 -18.999998,-20.4935033 z"
       style="color:#000000;display:inline;overflow:visible;visibility:visible;opacity:1;fill:none;fill-opacity:1;fill-rule:evenodd;stroke:url(#linearGradient4834);stroke-width:2;stroke-linecap:round;stroke-linejoin:round;stroke-miterlimit:4;stroke-dasharray:none;stroke-dashoffset:0;stroke-opacity:1;marker:none;marker-start:none;marker-mid:none;marker-end:none" />
    <path
       id="path3330"
       d="m 19.999996,3.5000003 c -10.2134012,0 -18.4999961,9.1806967 -18.4999961,20.4934987 0,11.312795 8.2865949,20.506503 18.4999961,20.506503 10.2134,0 18.499998,-9.193708 18.499998,-20.506503 10e-7,-11.312802 -8.286598,-20.4934987 -18.499998,-20.4934987 z"
       style="color:#000000;display:inline;overflow:visible;visibility:visible;opacity:1;fill:none;fill-opacity:1;fill-rule:evenodd;stroke:url(#linearGradient4842);stroke-width:1.00000012;stroke-linecap:round;stroke-linejoin:round;stroke-miterlimit:4;stroke-dasharray:none;stroke-dashoffset:0;stroke-opacity:1;marker:none;marker-start:none;marker-mid:none;marker-end:none" />
    <path
       id="path1139"
       style="fill:url(#linearGradient5093);fill-opacity:1;stroke:#3cb30c;stroke-width:1.00000048;stroke-linejoin:round;stroke-miterlimit:4;stroke-dasharray:none;stroke-dashoffset:0;stroke-opacity:1"
       d="M 40.500032,4.5000012 26.515035,7.3498335 v 4.9252535 8.56107 c -0.43865,-0.217754 -1.04686,-0.348484 -1.561134,-0.348484 -1.905886,0 -3.453895,0.575547 -3.453895,3.287416 0,2.055439 1.548009,3.724916 3.453895,3.724916 1.90589,0 3.532024,-1.669477 3.532024,-3.724916 0,-0.0742 -0.01757,-0.143708 -0.02154,-0.216836 h 0.0359 V 11.864649 L 38.512098,9.8356922 v 9.0072718 c -0.438521,-0.217599 -0.966248,-0.340741 -1.480324,-0.340741 -1.905891,0 -3.446719,0.471452 -3.446719,3.279673 0,2.055439 1.540828,3.724917 3.446719,3.724916 1.905885,0 3.453894,-1.669476 3.453894,-3.724916 0,-0.07496 -0.01748,-0.142966 -0.02154,-0.216835 h 0.0359 V 9.4252545 5.1427623 Z" />
    <path
       id="path1778"
       style="fill:url(#linearGradient5090);fill-opacity:1;fill-rule:evenodd;stroke:none;stroke-width:0.25000001pt;stroke-linecap:butt;stroke-linejoin:miter;stroke-opacity:1"
       d="M 27,11.79179 27.100002,7.7386248 40,5 39.899999,8.9436196 Z" />
    <path
       id="path2409"
       style="fill:url(#linearGradient5087);fill-opacity:1;stroke:none;stroke-width:3.59371519;stroke-linejoin:round;stroke-miterlimit:4;stroke-dashoffset:0;stroke-opacity:1"
       d="M 28,23.564473 C 28,25.264704 27.323638,27 25.163634,27 23.658181,27 22,25.264704 22,23.564473 c 0,-1.70023 1.439999,-3.080127 2.945454,-3.080127 1.505458,0 3.054546,1.379897 3.054546,3.080127 z" />
    <path
       id="path3036"
       style="fill:url(#linearGradient5084);fill-opacity:1;stroke:none;stroke-width:3.59371519;stroke-linejoin:round;stroke-miterlimit:4;stroke-dashoffset:0;stroke-opacity:1"
       d="M 40,21.836364 C 40,23.402038 39.323639,25 37.163635,25 35.658181,25 34,23.402038 34,21.836364 34,20.270691 35.44,19 36.945454,19 38.450912,19 40,20.270691 40,21.836364 Z" />
  </g>
</svg>
